<svg width="825" height="540" fill="none" xmlns="http://www.w3.org/2000/svg"><path d="M412.41 423.06l-132.484-76.41V193.796l132.484-76.41 132.484 76.41V346.65L412.41 423.06zm-109.113-89.921l109.113 62.934 109.113-62.934V207.272L412.41 144.373l-109.113 62.899v125.867z" fill="#F5FAFF"/><path d="M476.775 300.568l-70.216 40.498 11.685 20.218 70.217-40.498-11.686-20.218zm-122.88-70.825h-23.372v80.995h23.372v-80.995zm64.341-50.596l-11.685 20.218 70.216 40.497 11.686-20.218-70.217-40.497zM248.385 321.016H198.17V233.14h-29.143v87.876H43.49l116.122-200.86h-30.488L10.312 323.706v25.108h158.715V434h29.143v-85.186h50.215v-27.798zm559.848 0h-50.215V233.14h-29.143v87.876H603.337l116.123-200.86h-30.488L570.16 323.706v25.108h158.715V434h29.143v-85.186h50.215v-27.798z" fill="#F5FAFF"/></svg>