<svg width="28" height="28" viewBox="0 0 28 28" fill="none" xmlns="http://www.w3.org/2000/svg">
<path fill-rule="evenodd" clip-rule="evenodd" d="M26.5588 1.33C25.2408 0.0120697 23.104 0.0120697 21.7861 1.33L13.9445 9.17155L6.10295 1.33006C4.78502 0.0121307 2.64818 0.0121307 1.33025 1.33006C0.0123138 2.64799 0.0123138 4.78484 1.33025 6.10277L9.1718 13.9443L1.33153 21.7845C0.0135345 23.1025 0.0135345 25.2393 1.33153 26.5573C2.64946 27.8752 4.7863 27.8752 6.10423 26.5573L13.9445 18.717L21.7848 26.5573C23.1028 27.8753 25.2395 27.8753 26.5575 26.5573C27.8755 25.2394 27.8755 23.1025 26.5575 21.7846L18.7172 13.9443L26.5588 6.10271C27.8767 4.78477 27.8767 2.64793 26.5588 1.33Z" fill="#932322" fill-opacity="0.1"/>
</svg>
