<svg width="825" height="540" viewBox="0 0 825 540" fill="none" xmlns="http://www.w3.org/2000/svg">
<path d="M412.41 423.06L279.926 346.65V193.796L412.41 117.386L544.894 193.796V346.65L412.41 423.06ZM303.297 333.139L412.41 396.073L521.523 333.139V207.272L412.41 144.373L303.297 207.272V333.139Z" fill="#F5FAFF"/>
<path d="M476.775 300.568L406.559 341.066L418.244 361.284L488.461 320.786L476.775 300.568Z" fill="#F5FAFF"/>
<path d="M353.895 229.743H330.523V310.738H353.895V229.743Z" fill="#F5FAFF"/>
<path d="M418.236 179.147L406.551 199.365L476.767 239.862L488.453 219.644L418.236 179.147Z" fill="#F5FAFF"/>
<path d="M248.385 321.016H198.17V233.14H169.027V321.016H43.4898L159.612 120.156H129.124L10.312 323.706V348.814H169.027V434H198.17V348.814H248.385V321.016Z" fill="#F5FAFF"/>
<path d="M808.233 321.016H758.018V233.14H728.875V321.016H603.337L719.46 120.156H688.972L570.16 323.706V348.814H728.875V434H758.018V348.814H808.233V321.016Z" fill="#F5FAFF"/>
</svg>
