<svg width="36" height="30" fill="none" xmlns="http://www.w3.org/2000/svg"><path d="M26.184 9.289l-.04-.09L22.428.686l3.757 8.603zm0 0h.098m-.098 0h.098m0 0h6.856a2.31 2.31 0 011.818.872 2.25 2.25 0 01.439 1.916h0L31.733 28.07s0 0 0 0a2.294 2.294 0 01-2.256 1.78H6.126a2.294 2.294 0 01-2.257-1.78s0 0 0 0L.208 12.077l-.147.033.147-.033a2.25 2.25 0 01.438-1.916 2.31 2.31 0 011.818-.872h6.954l.04-.09L13.174.686l13.107 8.603zM21.251.225h0a.893.893 0 00-.46 1.176h0l3.353 7.679.092.21H11.367l.092-.21 3.354-7.68h0a.893.893 0 10-1.638-.714l8.076-.461zm0 0a.893.893 0 011.176.46L21.25.226zM5.611 27.671h0L1.947 11.678h0a.468.468 0 01.095-.404L5.61 27.67zm0 0a.523.523 0 00.515.392h23.35a.52.52 0 00.514-.394l3.662-15.991h0a.47.47 0 00-.094-.404h0a.53.53 0 00-.422-.198h-6.175l.093.21.273.626h0a.893.893 0 01-.461 1.175h0a.893.893 0 01-1.175-.46h0l-.638-1.46-.039-.09H10.587l-.04.09-.637 1.46h0a.893.893 0 11-1.637-.715h0l.274-.626.091-.21M5.61 27.67l3.028-16.595m0 0H8.41m.23 0h-.23m0 0H2.464a.53.53 0 00-.42.197l6.365-.197z" fill="#183042" stroke="#fff" stroke-width=".3"/><path d="M10.65 16.788a.893.893 0 011.786 0v7.649a.893.893 0 01-1.786 0v-7.649zm6.258 0a.893.893 0 011.786 0v7.649a.893.893 0 01-1.786 0v-7.649zm6.258 0a.893.893 0 011.786 0v7.649a.893.893 0 01-1.786 0v-7.649z" fill="#183042" stroke="#fff" stroke-width=".3"/></svg>