<svg width="26" height="30" fill="none" xmlns="http://www.w3.org/2000/svg"><g clip-path="url(#clip0)" fill="#183042"><path d="M12.927 14.451c1.986 0 3.705-.712 5.11-2.117 1.404-1.404 2.116-3.123 2.116-5.109 0-1.985-.712-3.704-2.117-5.109C16.632.712 14.913 0 12.927 0 10.942 0 9.223.712 7.82 2.116 6.414 3.521 5.702 5.24 5.702 7.226c0 1.985.712 3.704 2.117 5.109 1.405 1.404 3.124 2.116 5.108 2.116zM9.062 3.36c1.078-1.078 2.342-1.602 3.865-1.602 1.524 0 2.788.524 3.867 1.602 1.077 1.078 1.601 2.342 1.601 3.865 0 1.524-.524 2.788-1.601 3.866-1.079 1.078-2.343 1.602-3.867 1.602-1.522 0-2.787-.524-3.865-1.602C7.984 10.014 7.46 8.75 7.46 7.225c0-1.523.524-2.787 1.602-3.865zM25.57 23.068a17.81 17.81 0 00-.242-1.895 14.896 14.896 0 00-.467-1.906 9.402 9.402 0 00-.784-1.778 6.702 6.702 0 00-1.181-1.54 5.222 5.222 0 00-1.697-1.066 5.87 5.87 0 00-2.167-.392c-.306 0-.602.125-1.174.498-.352.23-.764.495-1.223.788-.393.25-.926.486-1.584.698a6.293 6.293 0 01-1.935.313 6.293 6.293 0 01-1.936-.313c-.657-.212-1.19-.447-1.582-.698-.456-.29-.868-.556-1.225-.789-.571-.372-.868-.498-1.174-.498-.78 0-1.509.132-2.166.393a5.21 5.21 0 00-1.698 1.066 6.708 6.708 0 00-1.181 1.54 9.421 9.421 0 00-.784 1.777 14.887 14.887 0 00-.465 1.906c-.121.672-.203 1.31-.244 1.896-.039.574-.059 1.17-.059 1.773 0 1.566.498 2.833 1.48 3.769.97.922 2.252 1.39 3.812 1.39H20.34c1.56 0 2.842-.468 3.812-1.39.982-.935 1.48-2.203 1.48-3.77 0-.604-.021-1.2-.061-1.772zm-2.63 4.268c-.641.61-1.492.906-2.601.906H5.894c-1.109 0-1.96-.296-2.6-.906-.629-.598-.934-1.415-.934-2.495 0-.562.019-1.118.056-1.65.036-.523.11-1.097.22-1.708.108-.602.246-1.168.41-1.68.157-.491.371-.977.637-1.446.254-.446.546-.829.869-1.137a3.446 3.446 0 011.129-.702c.414-.165.88-.254 1.384-.268.062.033.171.095.349.211.361.236.778.505 1.238.798.52.331 1.188.63 1.987.888.817.264 1.65.399 2.477.399s1.66-.135 2.477-.398c.8-.259 1.468-.558 1.988-.889.471-.3.876-.561 1.238-.798a4.61 4.61 0 01.348-.21 4.01 4.01 0 011.385.267 3.46 3.46 0 011.13.701c.322.309.614.692.868 1.138.266.469.48.955.638 1.445.164.513.302 1.079.41 1.68.11.612.183 1.187.22 1.708.037.532.056 1.087.056 1.65 0 1.082-.306 1.898-.935 2.496z"/></g><defs><clipPath id="clip0"><path fill="#fff" transform="translate(.602)" d="M0 0h25.029v30H0z"/></clipPath></defs></svg>